<svg width="12" height="13" viewBox="0 0 12 13" fill="none" xmlns="http://www.w3.org/2000/svg">
<path d="M9.50001 2.06897H9.00001V1.56897C9.00001 1.26897 8.80001 1.06897 8.50001 1.06897C8.20001 1.06897 8 1.26897 8 1.56897V2.06897H4V1.56897C4 1.26897 3.8 1.06897 3.5 1.06897C3.2 1.06897 3 1.26897 3 1.56897V2.06897H2.5C1.65 2.06897 1 2.71897 1 3.56897V4.06897H11V3.56897C11 2.71897 10.35 2.06897 9.50001 2.06897ZM1 9.56897C1 10.419 1.65 11.069 2.5 11.069H9.50001C10.35 11.069 11 10.419 11 9.56897V5.06897H1V9.56897ZM8.50001 6.06897C8.80001 6.06897 9.00001 6.26897 9.00001 6.56897C9.00001 6.86897 8.80001 7.06897 8.50001 7.06897C8.20001 7.06897 8 6.86897 8 6.56897C8 6.26897 8.20001 6.06897 8.50001 6.06897ZM8.50001 8.06897C8.80001 8.06897 9.00001 8.26897 9.00001 8.56897C9.00001 8.86897 8.80001 9.06897 8.50001 9.06897C8.20001 9.06897 8 8.86897 8 8.56897C8 8.26897 8.20001 8.06897 8.50001 8.06897ZM6 6.06897C6.3 6.06897 6.5 6.26897 6.5 6.56897C6.5 6.86897 6.3 7.06897 6 7.06897C5.7 7.06897 5.5 6.86897 5.5 6.56897C5.5 6.26897 5.7 6.06897 6 6.06897ZM6 8.06897C6.3 8.06897 6.5 8.26897 6.5 8.56897C6.5 8.86897 6.3 9.06897 6 9.06897C5.7 9.06897 5.5 8.86897 5.5 8.56897C5.5 8.26897 5.7 8.06897 6 8.06897ZM3.5 6.06897C3.8 6.06897 4 6.26897 4 6.56897C4 6.86897 3.8 7.06897 3.5 7.06897C3.2 7.06897 3 6.86897 3 6.56897C3 6.26897 3.2 6.06897 3.5 6.06897ZM3.5 8.06897C3.8 8.06897 4 8.26897 4 8.56897C4 8.86897 3.8 9.06897 3.5 9.06897C3.2 9.06897 3 8.86897 3 8.56897C3 8.26897 3.2 8.06897 3.5 8.06897Z" fill="#4F1C56"/>
</svg>
