<svg width="16" height="16" viewBox="0 0 16 16" fill="none" xmlns="http://www.w3.org/2000/svg">
<path d="M8.00001 7.99996C7.26667 7.99996 6.63889 7.73885 6.11667 7.21663C5.59445 6.6944 5.33334 6.06663 5.33334 5.33329C5.33334 4.59996 5.59445 3.97218 6.11667 3.44996C6.63889 2.92774 7.26667 2.66663 8.00001 2.66663C8.73334 2.66663 9.36112 2.92774 9.88334 3.44996C10.4056 3.97218 10.6667 4.59996 10.6667 5.33329C10.6667 6.06663 10.4056 6.6944 9.88334 7.21663C9.36112 7.73885 8.73334 7.99996 8.00001 7.99996ZM2.66667 12V11.4666C2.66667 11.0888 2.76401 10.7417 2.95867 10.4253C3.15334 10.1088 3.41156 9.86707 3.73334 9.69996C4.42223 9.35552 5.12223 9.09729 5.83334 8.92529C6.54445 8.75329 7.26667 8.66707 8.00001 8.66663C8.73334 8.66618 9.45556 8.7524 10.1667 8.92529C10.8778 9.09818 11.5778 9.3564 12.2667 9.69996C12.5889 9.86663 12.8473 10.1084 13.042 10.4253C13.2367 10.7422 13.3338 11.0893 13.3333 11.4666V12C13.3333 12.3666 13.2029 12.6806 12.942 12.942C12.6811 13.2033 12.3671 13.3337 12 13.3333H4.00001C3.63334 13.3333 3.31956 13.2028 3.05867 12.942C2.79778 12.6811 2.66712 12.3671 2.66667 12Z" fill="#4F1C56"/>
</svg>
